<?xml version="1.0" standalone="no"?>
<!DOCTYPE svg PUBLIC "-//W3C//DTD SVG 20010904//EN"
 "http://www.w3.org/TR/2001/REC-SVG-20010904/DTD/svg10.dtd">
<svg version="1.0" xmlns="http://www.w3.org/2000/svg"
 width="386.000000pt" height="282.000000pt" viewBox="0 0 386.000000 282.000000"
 preserveAspectRatio="xMidYMid meet">
<metadata>
Created by potrace 1.16, written by Peter Selinger 2001-2019
</metadata>
<g transform="translate(0.000000,282.000000) scale(0.100000,-0.100000)"
fill="#000000" stroke="none">
<path d="M1660 2222 c0 -4 180 -187 400 -407 220 -220 400 -404 400 -410 0 -6
-180 -190 -400 -410 -220 -220 -400 -403 -400 -407 0 -5 5 -8 12 -8 12 0 804
784 819 812 8 14 -61 88 -401 428 -226 225 -415 410 -421 410 -5 0 -9 -3 -9
-8z"/>
</g>
</svg>
