<?xml version="1.0" standalone="no"?>
<!DOCTYPE svg PUBLIC "-//W3C//DTD SVG 20010904//EN"
 "http://www.w3.org/TR/2001/REC-SVG-20010904/DTD/svg10.dtd">
<svg version="1.0" xmlns="http://www.w3.org/2000/svg"
 width="1516.000000pt" height="1536.000000pt" viewBox="0 0 1516.000000 1536.000000"
 preserveAspectRatio="xMidYMid meet">
<metadata>
Created by potrace 1.16, written by Peter Selinger 2001-2019
</metadata>
<g transform="translate(0.000000,1536.000000) scale(0.100000,-0.100000)"
fill="#000000" stroke="none">
<path d="M7242 15269 c-826 -50 -1597 -219 -2322 -510 -1396 -559 -2585 -1535
-3447 -2829 -453 -680 -841 -1555 -1052 -2370 -52 -199 -103 -429 -99 -442 2
-6 16 48 32 118 47 214 187 686 217 734 8 12 9 11 5 -5 -15 -57 -36 -169 -32
-172 2 -2 12 20 21 49 62 188 312 815 321 805 3 -3 -21 -74 -125 -364 -237
-666 -367 -1247 -426 -1915 -26 -295 -23 -828 5 -828 13 0 19 52 45 374 59
727 114 1081 250 1611 92 359 193 662 320 970 70 168 176 397 182 392 2 -2
-22 -63 -52 -136 -311 -741 -518 -1561 -591 -2344 -19 -204 -30 -757 -18 -942
l8 -140 8 195 c39 1063 114 1549 369 2405 121 404 279 786 446 1075 33 58 100
184 149 280 51 100 136 245 199 340 120 178 413 583 463 640 17 19 91 107 163
195 72 88 143 165 158 171 14 7 91 78 171 159 772 782 1684 1353 2730 1710
375 128 977 269 1320 310 30 4 107 18 170 32 106 23 140 26 439 30 443 7 1021
-24 1246 -67 83 -16 235 -45 339 -65 376 -72 757 -180 1141 -325 280 -105 382
-150 635 -276 641 -321 1238 -745 1734 -1234 151 -149 217 -207 213 -190 -19
79 408 -461 695 -881 252 -367 484 -778 638 -1131 23 -54 46 -96 50 -93 19 11
157 -391 265 -768 82 -286 142 -538 186 -787 41 -230 119 -866 118 -959 l-1
-76 -14 90 c-8 50 -19 115 -23 145 -7 38 -7 15 -3 -70 4 -69 7 -287 7 -485 0
-198 3 -326 6 -285 l5 75 2 -70 c2 -87 -22 -375 -48 -561 -18 -135 -19 -136
-15 -49 l4 90 -14 -100 c-7 -55 -20 -140 -29 -190 -19 -106 -19 -127 -1 -65
50 173 -54 -352 -120 -605 -87 -336 -257 -850 -350 -1060 -119 -269 -337 -683
-490 -930 -277 -447 -654 -930 -1006 -1290 -89 -90 -57 -78 76 29 115 93 374
337 526 495 90 94 164 169 166 167 2 -2 -20 -44 -48 -92 -254 -431 -781 -976
-1365 -1414 -286 -214 -693 -479 -914 -596 -127 -67 -66 -46 104 35 91 44 166
78 166 76 0 -4 -167 -114 -283 -187 -98 -61 -444 -243 -569 -299 -53 -24 -95
-45 -93 -47 6 -6 302 117 485 203 622 291 1186 659 1705 1114 158 139 492 473
634 636 438 501 770 993 1061 1575 81 161 203 430 198 436 -2 2 -32 -58 -67
-134 -75 -162 -153 -312 -269 -517 -88 -156 -297 -491 -313 -500 -5 -3 28 52
73 122 134 212 264 444 393 704 317 641 530 1288 661 2004 18 99 33 164 34
145 3 -49 35 168 59 400 57 548 52 1113 -15 1683 -9 76 -14 140 -12 143 6 6
35 -188 58 -396 30 -274 40 -457 42 -798 2 -304 2 -309 8 -127 14 416 -20
1034 -81 1448 -11 75 -19 143 -16 150 4 13 35 -175 66 -403 11 -74 19 -120 20
-102 1 45 -44 363 -80 562 -34 188 -96 464 -140 624 -16 60 -28 110 -26 113 6
5 77 -254 116 -417 111 -472 177 -957 188 -1400 6 -246 -16 -795 -42 -1060
-92 -923 -357 -1852 -757 -2655 -187 -373 -460 -824 -661 -1089 -33 -44 -55
-76 -49 -72 18 11 199 257 289 391 395 592 721 1323 953 2132 24 84 46 151 48
148 6 -5 -51 -223 -103 -395 -303 -998 -802 -1909 -1481 -2705 -160 -186 -492
-525 -684 -697 -1016 -910 -2266 -1524 -3590 -1762 -691 -124 -1349 -157
-2005 -102 -99 8 -207 17 -240 20 -54 5 -52 4 20 -9 101 -18 349 -42 570 -55
362 -21 854 -7 1225 34 642 72 1372 247 1869 450 35 14 66 24 68 22 6 -6 -278
-116 -452 -176 -666 -228 -1311 -355 -2113 -415 -112 -8 -211 -19 -220 -24
-36 -20 50 -26 373 -26 354 1 486 13 875 81 1395 242 2671 850 3725 1776 1017
892 1799 2087 2188 3343 383 1232 465 2491 247 3785 -196 1166 -558 2058
-1208 2979 -818 1159 -1910 2058 -3191 2626 -805 356 -1670 569 -2562 630
-233 16 -612 18 -837 4z m1413 -144 c93 -8 525 -95 750 -151 228 -57 532 -159
795 -267 875 -361 1635 -837 2263 -1415 133 -123 312 -307 357 -367 14 -19 14
-19 -5 -5 -11 8 -76 71 -145 140 -833 831 -1936 1492 -3045 1824 -282 84 -743
187 -998 224 -70 10 -125 21 -121 25 4 4 23 5 43 2 20 -2 68 -7 106 -10z
m4644 -2750 c136 -164 262 -334 366 -495 650 -1001 1037 -2092 1170 -3293 8
-77 14 -158 14 -180 -1 -23 -8 14 -15 83 -121 1124 -476 2187 -1046 3130 -55
91 -100 172 -101 180 -1 41 -297 450 -540 745 l-49 60 47 -50 c26 -27 95 -108
154 -180z m1736 -5932 c-50 -387 -138 -722 -307 -1171 -45 -117 -82 -211 -84
-209 -2 1 24 78 57 170 76 215 147 452 209 697 48 193 112 497 126 598 4 29 9
51 11 48 3 -2 -3 -62 -12 -133z m-631 -1960 c-439 -958 -1045 -1784 -1819
-2480 -349 -313 -799 -639 -1205 -871 -165 -94 -340 -186 -340 -178 0 2 35 23
78 46 162 89 419 246 521 320 517 373 686 505 951 745 174 157 532 523 671
685 451 527 823 1096 1124 1722 44 92 81 165 83 163 2 -2 -27 -70 -64 -152z"/>
<path d="M6872 11482 c-7 -5 -45 -168 -89 -378 l-77 -369 -110 -73 c-565 -373
-888 -1000 -863 -1672 17 -439 168 -831 455 -1172 95 -113 265 -264 391 -348
54 -36 105 -69 114 -75 10 -7 39 -128 91 -380 42 -203 82 -373 89 -377 6 -4
354 -8 773 -8 593 0 764 3 776 13 10 8 39 125 87 362 40 193 75 358 77 367 3
10 32 34 65 54 158 96 374 286 489 429 394 494 522 1128 350 1737 -123 441
-430 847 -825 1093 -41 26 -76 54 -79 63 -2 9 -37 175 -76 367 -50 242 -77
354 -88 363 -12 9 -183 12 -776 12 -419 0 -767 -4 -774 -8z m901 -692 c545
-45 1020 -322 1318 -770 337 -504 384 -1153 123 -1705 -136 -288 -378 -558
-649 -725 -405 -250 -889 -325 -1350 -209 -360 90 -714 325 -943 627 -534 701
-465 1671 163 2287 324 318 700 477 1195 503 14 1 78 -3 143 -8z"/>
<path d="M7565 10763 c-315 -18 -601 -114 -865 -288 -161 -107 -286 -225 -413
-392 -244 -320 -368 -739 -338 -1140 54 -695 506 -1279 1161 -1497 206 -68
288 -81 540 -81 197 0 238 3 330 23 194 42 404 124 546 213 451 281 734 709
810 1224 20 134 15 405 -9 535 -135 720 -710 1280 -1420 1384 -108 16 -259 24
-342 19z m335 -79 c648 -95 1182 -584 1344 -1229 64 -255 62 -543 -5 -807
-129 -511 -512 -937 -1008 -1124 -199 -75 -366 -105 -586 -105 -207 0 -366 28
-558 97 -390 139 -718 430 -908 806 -118 233 -172 464 -172 738 0 168 11 262
48 410 147 579 610 1039 1193 1184 222 55 420 65 652 30z"/>
<path d="M7549 10103 c-11 -13 -15 -104 -17 -475 l-3 -458 -364 0 -364 0 -15
-22 c-11 -15 -16 -45 -16 -88 0 -43 5 -73 16 -88 l15 -22 463 0 c436 0 464 1
479 18 15 17 17 71 17 569 0 642 12 583 -117 583 -63 0 -84 -4 -94 -17z m151
-568 l0 -535 -435 0 -435 0 0 60 0 60 380 0 380 0 0 468 c0 258 3 472 7 475 3
4 28 7 55 7 l48 0 0 -535z"/>
<path d="M11185 5599 c-82 -39 -153 -74 -158 -78 -4 -4 19 -2 50 4 103 22 94
86 91 -651 l-3 -644 145 0 145 0 -41 19 c-30 14 -44 28 -53 51 -8 23 -11 228
-11 701 0 368 -3 669 -7 669 -5 0 -75 -32 -158 -71z"/>
<path d="M8661 5565 c-134 -30 -240 -105 -288 -203 -24 -49 -28 -69 -28 -142
1 -72 5 -95 29 -147 59 -130 191 -214 436 -278 180 -47 275 -94 313 -157 53
-86 47 -224 -15 -309 -56 -78 -184 -113 -313 -86 -100 21 -158 49 -216 104
-67 63 -100 128 -108 218 l-6 70 -77 -123 c-43 -68 -78 -127 -78 -132 0 -15
91 -79 155 -109 113 -53 177 -65 335 -66 116 0 156 4 200 19 142 48 229 118
278 224 23 49 27 70 27 147 0 107 -23 164 -91 230 -74 72 -171 116 -363 166
-258 66 -351 148 -353 315 -1 80 18 133 65 182 91 94 322 75 450 -37 53 -47
100 -148 106 -231 l6 -69 79 126 c62 99 77 129 69 142 -20 32 -140 102 -218
128 -100 32 -291 41 -394 18z"/>
<path d="M2884 5528 c22 -18 56 -59 77 -91 l39 -60 0 -481 c0 -403 -3 -492
-15 -541 -18 -67 -44 -101 -89 -114 -22 -6 19 -9 129 -10 l160 -1 -41 19 c-49
22 -79 77 -94 167 -6 33 -10 241 -9 464 l0 405 271 -540 c250 -498 272 -538
282 -514 6 14 124 292 261 617 138 325 254 592 258 592 4 0 6 -256 5 -570 -3
-568 -3 -569 -25 -591 -11 -12 -43 -27 -70 -35 -43 -11 -23 -13 192 -13 132 1
236 2 230 4 -5 2 -27 6 -49 10 -21 3 -49 17 -62 30 l-24 24 0 591 0 591 24 24
c14 14 42 27 66 31 89 14 43 24 -115 24 l-166 0 -33 -72 c-18 -40 -120 -281
-227 -535 -107 -255 -196 -463 -199 -463 -3 0 -125 241 -273 535 l-267 535
-137 0 -138 0 39 -32z"/>
<path d="M6710 5415 c-63 -30 -141 -66 -173 -81 -32 -14 -57 -27 -55 -29 2 -1
30 3 63 10 104 21 95 72 95 -539 l0 -534 62 -21 c34 -12 78 -21 97 -21 33 0
237 53 249 64 2 3 -48 3 -112 -1 l-116 -6 0 421 0 422 110 0 110 0 0 25 0 25
-111 0 -111 0 3 160 c2 88 4 160 4 159 0 0 -52 -25 -115 -54z"/>
<path d="M9560 5394 c-91 -42 -169 -81 -175 -86 -7 -8 -4 -9 10 -4 11 4 40 11
65 16 40 8 47 7 63 -12 17 -20 18 -53 15 -544 l-3 -522 60 -21 c33 -12 77 -21
98 -21 36 0 205 43 237 60 8 5 -38 6 -102 3 l-118 -6 0 421 0 421 113 3 c108
3 112 4 115 26 3 22 2 22 -112 22 l-116 0 0 123 c0 67 4 139 9 160 5 20 8 37
7 37 0 -1 -75 -35 -166 -76z"/>
<path d="M5937 5144 c-150 -36 -232 -126 -231 -254 1 -77 24 -131 79 -178 67
-60 126 -82 303 -117 142 -28 194 -76 200 -183 5 -108 -39 -159 -145 -169
-162 -15 -329 90 -350 220 l-6 37 -53 -87 -53 -87 36 -25 c51 -34 156 -69 249
-82 166 -23 327 26 404 123 72 92 69 240 -8 322 -41 44 -154 91 -277 116 -122
25 -166 43 -210 89 -25 27 -30 41 -33 96 -5 83 18 126 83 151 131 50 315 -46
355 -186 l15 -53 57 86 c65 98 66 96 -34 142 -114 52 -264 68 -381 39z"/>
<path d="M7605 5145 c-230 -42 -390 -195 -425 -408 -40 -233 75 -435 285 -499
98 -30 246 -30 332 0 l61 22 147 -29 146 -28 -33 34 -33 34 -3 408 -3 409 -51
22 c-109 47 -283 61 -423 35z m167 -41 c25 -8 64 -31 87 -50 l41 -36 0 -343 0
-344 -37 -28 c-34 -26 -43 -28 -127 -28 -109 0 -165 23 -236 95 -99 102 -144
232 -138 405 3 101 6 116 36 177 37 75 92 129 156 152 55 19 162 20 218 0z"/>
<path d="M11942 5140 c-105 -28 -184 -74 -250 -144 -116 -125 -159 -289 -117
-449 21 -79 49 -131 103 -189 81 -87 181 -131 328 -143 149 -13 297 37 393
133 56 56 64 83 10 38 -67 -57 -169 -87 -291 -87 -103 0 -177 32 -247 105 -74
79 -108 161 -125 298 l-5 47 292 3 c259 3 296 5 325 21 74 41 93 132 45 226
-47 96 -151 150 -298 157 -69 3 -107 0 -163 -16z m191 -44 c89 -43 159 -189
127 -265 -6 -16 -18 -32 -25 -35 -16 -6 -484 -10 -490 -5 -7 9 18 127 36 169
23 51 79 114 124 138 62 33 156 32 228 -2z"/>
<path d="M4549 5120 c23 -17 46 -42 51 -56 6 -14 10 -139 10 -277 0 -353 15
-433 96 -511 103 -101 292 -81 493 51 l96 62 3 -84 3 -85 37 1 c20 0 84 6 142
13 104 12 105 12 65 24 -22 7 -46 16 -53 21 -11 6 -13 91 -10 440 l3 431 -144
0 -144 0 42 -30 c23 -17 46 -42 51 -56 6 -14 10 -158 10 -327 l0 -302 -77 -52
c-97 -65 -150 -85 -234 -86 -85 -1 -135 28 -170 100 -24 48 -24 50 -24 401 l0
352 -144 0 -144 0 42 -30z"/>
<path d="M10081 5068 c23 -46 122 -260 220 -477 l179 -394 -25 -56 c-56 -120
-135 -181 -266 -203 -41 -6 -76 -13 -78 -15 -3 -2 11 -19 29 -38 28 -29 41
-35 74 -35 82 1 167 62 219 159 14 25 109 246 212 491 103 245 200 470 216
501 31 62 78 114 118 132 23 11 17 12 -52 15 -43 2 -110 2 -150 0 l-72 -3 41
-22 c63 -34 79 -88 49 -174 -37 -105 -230 -548 -236 -541 -4 4 -63 136 -133
293 -137 311 -146 345 -103 393 12 14 42 32 67 40 43 14 37 15 -153 16 l-197
0 41 -82z"/>
<path d="M820 4678 c0 -25 206 -451 308 -638 361 -659 790 -1223 1338 -1760
574 -562 1188 -989 1989 -1385 670 -330 1067 -477 1533 -565 131 -25 162 -22
39 4 -293 62 -836 238 -1142 371 -628 273 -1116 554 -1623 934 -284 214 -533
431 -807 706 -455 455 -825 922 -1139 1439 -40 67 -110 180 -156 251 -45 72
-140 247 -211 389 -71 143 -129 257 -129 254z"/>
<path d="M12410 2708 c-150 -144 -348 -321 -482 -432 -60 -49 -108 -90 -108
-92 0 -5 160 112 260 189 36 28 102 87 148 131 82 80 308 316 301 316 -2 -1
-56 -51 -119 -112z"/>
<path d="M3160 2021 c111 -103 454 -358 669 -499 546 -355 1022 -582 1646
-785 175 -57 569 -161 587 -155 5 2 -66 23 -158 47 -530 137 -1070 347 -1539
598 -457 245 -769 451 -1195 791 l-55 44 45 -41z"/>
<path d="M4005 1353 c50 -55 574 -330 870 -456 188 -80 594 -231 602 -224 2 3
-31 17 -74 32 -197 70 -411 153 -548 212 -256 111 -626 302 -833 430 -15 9
-22 12 -17 6z"/>
<path d="M10085 724 c-275 -103 -710 -224 -1020 -283 -510 -97 -891 -132
-1465 -133 -242 -1 -335 -3 -275 -8 136 -12 644 -11 817 0 502 34 1106 148
1622 307 186 57 443 147 455 159 11 10 -22 0 -134 -42z"/>
</g>
</svg>
