<?xml version="1.0" standalone="no"?>
<!DOCTYPE svg PUBLIC "-//W3C//DTD SVG 20010904//EN"
 "http://www.w3.org/TR/2001/REC-SVG-20010904/DTD/svg10.dtd">
<svg version="1.0" xmlns="http://www.w3.org/2000/svg"
 width="65" height="65" viewBox="0 0 1240.000000 1244.000000"
 preserveAspectRatio="xMidYMid meet">

<g transform="translate(0.000000,1244.000000) scale(0.100000,-0.100000)"
fill="#F3521E" stroke="none">
<path d="M6150 12358 c-47 -4 -98 -11 -115 -16 -16 -6 -58 -18 -92 -28 -35
-11 -63 -22 -63 -26 0 -5 -7 -8 -16 -8 -9 0 -53 -24 -98 -54 -76 -51 -101 -70
-151 -115 -11 -10 -229 -228 -485 -485 -256 -256 -504 -505 -552 -553 -49 -49
-88 -90 -88 -93 0 -3 294 -299 653 -657 l653 -653 64 24 c36 13 72 26 80 29
17 6 48 13 130 28 103 20 406 -4 436 -34 4 -4 18 -7 31 -7 33 0 203 -84 272
-135 68 -50 145 -124 186 -180 17 -22 32 -42 35 -45 22 -21 110 -187 110 -208
0 -7 4 -20 9 -30 34 -68 55 -197 56 -342 0 -165 -21 -263 -81 -384 l-15 -29
638 -638 c351 -351 645 -639 653 -639 8 0 44 11 80 24 105 39 241 66 330 66
44 0 158 -15 235 -32 213 -45 428 -179 551 -344 16 -22 32 -41 36 -44 9 -7
103 -189 111 -215 3 -11 13 -45 22 -75 52 -174 49 -416 -5 -581 -19 -59 -31
-86 -78 -189 -44 -95 -176 -241 -292 -322 -82 -58 -186 -108 -270 -131 -36
-10 -78 -22 -95 -27 -50 -14 -245 -20 -330 -11 -144 17 -184 28 -315 89 -241
112 -433 335 -505 587 -9 33 -22 78 -28 100 -16 53 -16 348 0 400 6 22 17 60
23 85 7 25 21 64 31 87 10 23 19 45 19 48 0 11 -1279 1285 -1290 1285 -6 0
-24 -7 -40 -15 l-30 -16 0 -1673 0 -1673 23 -10 c90 -40 153 -75 223 -124 83
-59 188 -163 220 -218 10 -17 21 -31 25 -31 3 0 14 -19 25 -42 10 -24 21 -45
24 -48 8 -7 46 -96 64 -151 44 -135 56 -299 31 -454 -9 -60 -20 -114 -25 -120
-4 -5 -10 -25 -13 -43 -10 -48 -63 -156 -123 -247 -106 -163 -298 -308 -479
-365 -22 -7 -49 -16 -60 -20 -118 -46 -432 -46 -550 0 -11 4 -38 13 -60 20
-122 38 -253 118 -359 219 -67 65 -196 245 -196 275 0 8 -4 17 -9 20 -5 4 -17
32 -26 64 -9 31 -21 66 -25 77 -21 48 -34 149 -34 265 -1 119 17 264 36 284 4
6 8 18 8 28 0 10 4 26 9 36 5 9 18 38 28 64 10 27 21 48 26 48 4 0 7 6 7 14 0
44 160 234 255 304 28 20 52 39 55 42 13 14 138 78 193 99 l27 11 -2 1692 -3
1692 -100 51 c-84 41 -161 90 -185 115 -3 3 -23 21 -46 40 -46 39 -134 142
-163 192 -31 51 -81 158 -81 172 0 6 -4 16 -8 21 -26 32 -62 222 -62 330 0
103 34 286 60 330 4 6 13 29 20 53 l14 43 -650 649 c-357 357 -654 650 -659
650 -14 0 -30 -16 -760 -754 -764 -772 -1195 -1208 -2195 -2216 -421 -425
-770 -778 -777 -785 -23 -25 -121 -174 -136 -207 -67 -153 -94 -321 -72 -458
7 -47 21 -110 30 -140 9 -30 19 -65 22 -77 3 -13 9 -23 14 -23 5 0 9 -7 9 -15
0 -17 49 -99 97 -165 27 -35 4595 -4613 5273 -5284 148 -146 303 -266 345
-266 8 0 15 -4 15 -9 0 -5 10 -11 23 -14 12 -3 47 -13 77 -23 108 -32 231 -43
332 -29 102 14 179 34 229 59 18 9 37 16 42 16 6 0 53 29 106 64 77 52 152
121 386 356 160 161 295 297 302 303 143 143 1445 1444 1733 1732 216 217 403
403 415 414 11 10 158 157 327 327 169 170 606 607 970 971 1319 1318 1352
1352 1407 1437 28 44 54 90 57 103 4 12 10 23 14 23 4 0 10 10 13 22 3 13 13
48 23 78 39 128 46 324 15 425 -5 17 -17 58 -27 92 -11 35 -22 63 -26 63 -5 0
-8 7 -8 15 0 20 -59 113 -121 190 -83 104 -5379 5392 -5449 5441 -74 52 -208
118 -272 135 -90 23 -214 34 -298 27z"/>
</g>
</svg>
