<svg version="1.0" xmlns="http://www.w3.org/2000/svg" width="17.28" height="30.22" viewBox="0 0 850.000000 1436.000000" preserveAspectRatio="xMidYMid meet"><g transform="translate(0.000000,1436.000000) scale(0.100000,-0.100000)" fill="#000000" stroke="none"> <path d="M1245 13459 c-367 -35 -681 -323 -751 -687 -22 -113 -22 -11740 0 -11853 62 -323 287 -572 606 -671 l75 -23 2895 -3 c2198 -2 2912 0 2965 9 344 58 620 328 690 675 14 72 16 625 18 5944 l2 5865 -22 88 c-84 326 -325 564 -653 643 -71 17 -215 18 -2910 20 -1559 1 -2871 -2 -2915 -7z m1425 -466 c5 -21 44 -175 85 -343 42 -168 83 -322 92 -343 21 -49 81 -103 130 -117 27 -8 358 -10 1145 -8 l1106 3 44 30 c23 17 53 49 64 70 20 36 214 703 214 733 0 10 160 12 723 10 l722 -3 67 -32 c94 -44 160 -109 206 -202 l37 -75 7 -5820 c6 -3970 5 -5842 -2 -5886 -29 -184 -174 -330 -355 -360 -38 -6 -1072 -10 -2850 -10 -3037 0 -2867 -3 -2974 56 -101 54 -183 162 -211 274 -8 32 -10 1687 -8 5890 l3 5845 24 58 c46 116 147 209 265 246 58 19 96 20 758 20 l697 1 11 -37z m2430 10 c-5 -16 -30 -102 -55 -193 -25 -91 -49 -173 -51 -182 -5 -17 -56 -18 -895 -18 -489 0 -889 2 -889 6 0 3 -22 94 -50 203 -27 109 -50 201 -50 204 0 4 450 7 999 7 l1000 0 -9 -27z"/> <path d="M2732 8099 c-26 -13 -65 -49 -100 -93 -331 -408 -830 -1038 -848 -1070 -26 -45 -31 -107 -14 -166 7 -22 177 -243 463 -600 365 -456 461 -570 496 -589 138 -76 314 29 314 187 0 35 -7 70 -17 91 -10 18 -188 246 -397 507 l-378 473 382 478 c211 263 389 493 397 512 36 89 -1 205 -82 258 -57 38 -154 44 -216 12z"/> <path d="M4665 8106 c-17 -7 -44 -27 -61 -43 -24 -24 -1268 -2084 -1330 -2203 -40 -77 -12 -201 58 -253 55 -41 80 -50 139 -50 61 1 120 25 155 65 40 44 1327 2201 1337 2240 22 89 -30 195 -116 237 -50 24 -135 27 -182 7z"/> <path d="M5310 8109 c-35 -14 -88 -67 -111 -111 -23 -44 -25 -124 -5 -173 8 -18 186 -248 396 -510 l381 -476 -278 -347 c-153 -191 -283 -354 -290 -362 -114 -139 -199 -252 -210 -280 -22 -52 -14 -148 17 -194 68 -99 210 -130 302 -65 35 25 904 1107 930 1159 20 38 24 121 8 166 -6 17 -214 284 -463 594 -500 625 -486 611 -597 609 -30 0 -66 -5 -80 -10z"/> <path d="M1481 1493 c-13 -3 -48 -28 -76 -57 -42 -41 -55 -62 -63 -102 -21 -95 20 -188 101 -235 l42 -24 810 0 810 0 47 27 c122 73 139 239 34 336 -24 22 -61 45 -82 51 -38 11 -1568 14 -1623 4z"/> <path d="M3619 1487 c-60 -22 -96 -54 -123 -109 -32 -65 -33 -118 -2 -184 25 -54 69 -94 125 -113 42 -14 292 -15 341 -1 49 13 109 66 131 114 46 101 3 227 -94 278 -37 20 -59 23 -192 25 -106 2 -161 -1 -186 -10z"/> </g> </svg>
