<?xml version="1.0" standalone="no"?>
<!DOCTYPE svg PUBLIC "-//W3C//DTD SVG 20010904//EN"
 "http://www.w3.org/TR/2001/REC-SVG-20010904/DTD/svg10.dtd">
<svg version="1.0" xmlns="http://www.w3.org/2000/svg"
 width="512.000000pt" height="512.000000pt" viewBox="0 0 512.000000 512.000000"
 preserveAspectRatio="xMidYMid meet">

<g transform="translate(0.000000,512.000000) scale(0.100000,-0.100000)"
fill="#C70101" stroke="none">
<path d="M2467 5085 c-27 -7 -65 -24 -85 -38 -20 -13 -553 -533 -1183 -1154
-1240 -1223 -1181 -1161 -1196 -1283 -13 -108 46 -231 141 -294 65 -43 128
-60 204 -54 126 9 76 -36 1186 1059 560 552 1022 1004 1026 1004 4 0 466 -452
1026 -1004 1144 -1128 1061 -1056 1214 -1056 71 0 93 4 134 25 116 59 181 163
181 290 0 145 78 59 -1204 1322 -629 620 -1159 1137 -1177 1149 -74 46 -177
59 -267 34z"/>
<path d="M2438 2837 c-31 -14 -70 -36 -87 -50 -79 -66 -2270 -2234 -2294
-2270 -109 -161 -47 -381 133 -466 44 -20 71 -25 130 -26 148 0 78 -61 1220
1064 558 551 1017 1001 1020 1001 3 0 457 -446 1010 -991 553 -545 1028 -1006
1055 -1024 162 -107 379 -44 464 135 21 44 26 70 26 130 0 113 -30 168 -158
295 -56 55 -573 565 -1150 1134 -1166 1149 -1090 1083 -1237 1089 -61 2 -86
-2 -132 -21z"/>
</g>
</svg>
